<svg width="100" height="30" viewBox="0 0 100 30" fill="none" xmlns="http://www.w3.org/2000/svg">
<path fill-rule="evenodd" clip-rule="evenodd" d="M10.506 28.7517C7.86923 29.9003 4.98068 30.2576 2.18354 29.8175C0.395724 29.5362 -0.435764 27.5944 0.22639 25.9101C0.888544 24.2257 2.81925 23.4695 4.6289 23.4451C5.74072 23.4302 6.84935 23.1958 7.88853 22.7431C9.94214 21.8485 11.5563 20.1747 12.3758 18.09C13.1954 16.0053 13.1532 13.6805 12.2586 11.6268C11.8059 10.5877 11.1537 9.66103 10.3497 8.89293C9.04112 7.64275 8.14233 5.77412 8.80449 4.08979C9.46665 2.40545 11.3979 1.54975 12.8986 2.56125C14.1094 3.37728 15.1935 4.36514 16.1172 5.49215C16.3489 5.77496 16.7889 5.77497 17.0207 5.49216C19.1554 2.88728 22.1047 1.0766 25.3936 0.351648C28.6825 -0.373304 32.1197 0.0296555 35.1517 1.49565C38.1838 2.96165 40.6342 5.40537 42.1086 8.43336C42.9639 10.1899 43.4618 12.0838 43.5894 14.007C43.7432 16.3251 41.4393 17.788 39.1692 17.2942C36.8991 16.8004 35.5817 14.4045 34.625 12.2875C34.5991 12.2301 34.5723 12.173 34.5447 12.1163C33.8972 10.7866 32.8211 9.71347 31.4897 9.0697C30.1582 8.42593 28.6488 8.24897 27.2045 8.56733C25.7602 8.88568 24.4651 9.68081 23.5277 10.8247C22.5902 11.9686 22.065 13.3947 22.0366 14.8734C22.0082 16.352 22.4783 17.7973 23.3711 18.9763C24.2639 20.1554 25.5275 20.9997 26.9585 21.3733C27.0195 21.3892 27.0807 21.4043 27.1421 21.4184C29.4058 21.9405 32.0138 22.7616 32.9439 24.8904C33.8741 27.0193 32.8923 29.5657 30.5892 29.8703C28.6784 30.123 26.7236 30.0068 24.8333 29.5133C21.5746 28.6626 18.6971 26.7399 16.664 24.055C16.6164 23.9921 16.5215 23.9921 16.4738 24.055C14.9338 26.0887 12.8861 27.7148 10.506 28.7517Z" fill="white"/>
<path d="M64.48 24.528C63.36 25.648 61.9893 26.208 60.368 26.208C58.7467 26.208 57.3707 25.648 56.24 24.528C55.12 23.3973 54.56 22.0213 54.56 20.4C54.56 18.7787 55.12 17.408 56.24 16.288C57.3707 15.1573 58.7467 14.592 60.368 14.592C61.9893 14.592 63.36 15.1573 64.48 16.288C65.6107 17.408 66.176 18.7787 66.176 20.4C66.176 22.0213 65.6107 23.3973 64.48 24.528ZM57.536 23.28C58.304 24.0373 59.248 24.416 60.368 24.416C61.488 24.416 62.4267 24.0373 63.184 23.28C63.952 22.512 64.336 21.552 64.336 20.4C64.336 19.248 63.952 18.2933 63.184 17.536C62.4267 16.768 61.488 16.384 60.368 16.384C59.248 16.384 58.304 16.768 57.536 17.536C56.7787 18.2933 56.4 19.248 56.4 20.4C56.4 21.552 56.7787 22.512 57.536 23.28ZM74.0784 18H75.8064V26H74.0784V24.848C73.4277 25.7547 72.4944 26.208 71.2784 26.208C70.1797 26.208 69.241 25.8027 68.4624 24.992C67.6837 24.1707 67.2944 23.1733 67.2944 22C67.2944 20.816 67.6837 19.8187 68.4624 19.008C69.241 18.1973 70.1797 17.792 71.2784 17.792C72.4944 17.792 73.4277 18.24 74.0784 19.136V18ZM69.7424 23.84C70.2224 24.32 70.825 24.56 71.5504 24.56C72.2757 24.56 72.8784 24.32 73.3584 23.84C73.8384 23.3493 74.0784 22.736 74.0784 22C74.0784 21.264 73.8384 20.656 73.3584 20.176C72.8784 19.6853 72.2757 19.44 71.5504 19.44C70.825 19.44 70.2224 19.6853 69.7424 20.176C69.2624 20.656 69.0224 21.264 69.0224 22C69.0224 22.736 69.2624 23.3493 69.7424 23.84ZM79.3256 20.208C79.3256 20.4747 79.4696 20.688 79.7576 20.848C80.0563 20.9973 80.4136 21.1307 80.8296 21.248C81.2563 21.3547 81.683 21.4827 82.1096 21.632C82.5363 21.7813 82.8936 22.0373 83.1816 22.4C83.4803 22.752 83.6296 23.2 83.6296 23.744C83.6296 24.512 83.331 25.1147 82.7336 25.552C82.147 25.9893 81.4056 26.208 80.5096 26.208C79.7203 26.208 79.043 26.0427 78.4776 25.712C77.9123 25.3813 77.5016 24.9227 77.2456 24.336L78.7336 23.472C79.011 24.24 79.603 24.624 80.5096 24.624C81.4163 24.624 81.8696 24.3253 81.8696 23.728C81.8696 23.472 81.7203 23.264 81.4216 23.104C81.1336 22.944 80.7763 22.8107 80.3496 22.704C79.9336 22.5867 79.5123 22.4533 79.0856 22.304C78.659 22.1547 78.2963 21.9093 77.9976 21.568C77.7096 21.216 77.5656 20.7733 77.5656 20.24C77.5656 19.504 77.843 18.912 78.3976 18.464C78.963 18.016 79.6616 17.792 80.4936 17.792C81.155 17.792 81.7416 17.9413 82.2536 18.24C82.7763 18.528 83.1763 18.9333 83.4536 19.456L81.9976 20.272C81.7203 19.664 81.219 19.36 80.4936 19.36C80.163 19.36 79.8856 19.4347 79.6616 19.584C79.4376 19.7227 79.3256 19.9307 79.3256 20.208ZM86.6869 16.48C86.4735 16.6933 86.2175 16.8 85.9189 16.8C85.6202 16.8 85.3589 16.6933 85.1349 16.48C84.9215 16.256 84.8149 15.9947 84.8149 15.696C84.8149 15.3973 84.9215 15.1413 85.1349 14.928C85.3482 14.704 85.6095 14.592 85.9189 14.592C86.2282 14.592 86.4895 14.704 86.7029 14.928C86.9162 15.1413 87.0229 15.3973 87.0229 15.696C87.0229 15.9947 86.9109 16.256 86.6869 16.48ZM85.0549 26V18H86.7829V26H85.0549ZM90.2944 20.208C90.2944 20.4747 90.4384 20.688 90.7264 20.848C91.025 20.9973 91.3824 21.1307 91.7984 21.248C92.225 21.3547 92.6517 21.4827 93.0784 21.632C93.505 21.7813 93.8624 22.0373 94.1504 22.4C94.449 22.752 94.5984 23.2 94.5984 23.744C94.5984 24.512 94.2997 25.1147 93.7024 25.552C93.1157 25.9893 92.3744 26.208 91.4784 26.208C90.689 26.208 90.0117 26.0427 89.4464 25.712C88.881 25.3813 88.4704 24.9227 88.2144 24.336L89.7024 23.472C89.9797 24.24 90.5717 24.624 91.4784 24.624C92.385 24.624 92.8384 24.3253 92.8384 23.728C92.8384 23.472 92.689 23.264 92.3904 23.104C92.1024 22.944 91.745 22.8107 91.3184 22.704C90.9024 22.5867 90.481 22.4533 90.0544 22.304C89.6277 22.1547 89.265 21.9093 88.9664 21.568C88.6784 21.216 88.5344 20.7733 88.5344 20.24C88.5344 19.504 88.8117 18.912 89.3664 18.464C89.9317 18.016 90.6304 17.792 91.4624 17.792C92.1237 17.792 92.7104 17.9413 93.2224 18.24C93.745 18.528 94.145 18.9333 94.4224 19.456L92.9664 20.272C92.689 19.664 92.1877 19.36 91.4624 19.36C91.1317 19.36 90.8544 19.4347 90.6304 19.584C90.4064 19.7227 90.2944 19.9307 90.2944 20.208ZM97.8491 25.84C97.6145 26.0747 97.3318 26.192 97.0011 26.192C96.6705 26.192 96.3878 26.0747 96.1531 25.84C95.9185 25.6053 95.8011 25.3227 95.8011 24.992C95.8011 24.6613 95.9131 24.3787 96.1371 24.144C96.3718 23.9093 96.6598 23.792 97.0011 23.792C97.3318 23.792 97.6145 23.9093 97.8491 24.144C98.0838 24.3787 98.2011 24.6613 98.2011 24.992C98.2011 25.3227 98.0838 25.6053 97.8491 25.84Z" fill="white"/>
</svg>
