<svg width="208" height="11" viewBox="0 0 208 11" fill="none" xmlns="http://www.w3.org/2000/svg">
<path d="M3.61255 9V5.688L0.276547 0.599999H2.01655L4.36855 4.32L6.74455 0.599999H8.43655L5.10055 5.652V9H3.61255ZM16.1795 7.872C15.3475 8.72 14.2955 9.144 13.0235 9.144C11.7515 9.144 10.7035 8.724 9.87955 7.884C9.05555 7.044 8.64355 6.016 8.64355 4.8C8.64355 3.6 9.05955 2.576 9.89155 1.728C10.7235 0.88 11.7755 0.456 13.0475 0.456C14.3195 0.456 15.3675 0.876 16.1915 1.716C17.0155 2.556 17.4275 3.584 17.4275 4.8C17.4275 6 17.0115 7.024 16.1795 7.872ZM10.9955 6.924C11.5395 7.5 12.2235 7.788 13.0475 7.788C13.8715 7.788 14.5475 7.5 15.0755 6.924C15.6115 6.348 15.8795 5.64 15.8795 4.8C15.8795 3.968 15.6075 3.264 15.0635 2.688C14.5275 2.104 13.8475 1.812 13.0235 1.812C12.1995 1.812 11.5195 2.1 10.9835 2.676C10.4555 3.252 10.1915 3.96 10.1915 4.8C10.1915 5.632 10.4595 6.34 10.9955 6.924ZM22.6549 9.132C21.5429 9.132 20.6669 8.816 20.0269 8.184C19.3949 7.552 19.0789 6.636 19.0789 5.436V0.599999H20.5549V5.376C20.5549 6.144 20.7429 6.736 21.1189 7.152C21.4949 7.568 22.0149 7.776 22.6789 7.776C23.3429 7.776 23.8589 7.576 24.2269 7.176C24.6029 6.776 24.7909 6.196 24.7909 5.436V0.599999H26.2669V5.364C26.2669 6.588 25.9469 7.524 25.3069 8.172C24.6669 8.812 23.7829 9.132 22.6549 9.132ZM31.8905 9V0.599999H33.3665V4.092H37.3745V0.599999H38.8505V9H37.3745V5.46H33.3665V9H31.8905ZM40.2877 9L43.9837 0.539999H45.3517L49.0477 9H47.4877L46.6357 6.972H42.6637L41.7997 9H40.2877ZM43.2037 5.664H46.0957L44.6437 2.304L43.2037 5.664ZM52.0649 9.06L48.5729 0.599999H50.2049L52.7369 7.056L55.2569 0.599999H56.8529L53.3609 9.06H52.0649ZM58.2929 9V0.599999H64.5209V1.92H59.7689V4.104H63.9809V5.424H59.7689V7.68H64.5809V9H58.2929Z" fill="#181818"/>
<path d="M69.4376 9V7.836L72.3296 5.376C72.9216 4.88 73.3296 4.472 73.5536 4.152C73.7856 3.824 73.9016 3.476 73.9016 3.108C73.9016 2.708 73.7736 2.392 73.5176 2.16C73.2616 1.92 72.9376 1.8 72.5456 1.8C72.1776 1.8 71.8456 1.9 71.5496 2.1C71.2616 2.3 70.9456 2.62 70.6016 3.06L69.5576 2.244C69.9896 1.636 70.4336 1.192 70.8896 0.912C71.3536 0.624 71.9416 0.48 72.6536 0.48C73.4776 0.48 74.1456 0.712 74.6576 1.176C75.1696 1.64 75.4256 2.252 75.4256 3.012C75.4256 3.34 75.3856 3.636 75.3056 3.9C75.2256 4.156 75.0816 4.42 74.8736 4.692C74.6736 4.956 74.4536 5.2 74.2136 5.424C73.9816 5.64 73.6576 5.92 73.2416 6.264L71.5136 7.704H75.5096V9H69.4376ZM80.8866 9V0.599999H82.2546L86.7546 6.408V0.599999H88.2066V9H86.9706L82.3386 3.024V9H80.8866ZM90.3671 9V0.599999H96.5951V1.92H91.8431V4.104H96.0551V5.424H91.8431V7.68H96.6551V9H90.3671ZM100.686 9.06L97.7582 0.599999H99.3542L101.358 6.828L103.422 0.576H104.67L106.734 6.828L108.738 0.599999H110.286L107.358 9.06H106.086L104.022 3.024L101.958 9.06H100.686ZM119.298 9.144C118.082 9.144 117.066 8.728 116.25 7.896C115.434 7.056 115.026 6.024 115.026 4.8C115.026 3.584 115.434 2.556 116.25 1.716C117.066 0.876 118.102 0.456 119.358 0.456C120.086 0.456 120.702 0.568 121.206 0.792C121.718 1.016 122.198 1.34 122.646 1.764L121.698 2.856C120.946 2.16 120.162 1.812 119.346 1.812C118.546 1.812 117.882 2.1 117.354 2.676C116.834 3.252 116.574 3.96 116.574 4.8C116.574 5.632 116.838 6.34 117.366 6.924C117.894 7.5 118.554 7.788 119.346 7.788C119.826 7.788 120.25 7.7 120.618 7.524C120.986 7.34 121.366 7.064 121.758 6.696L122.706 7.656C122.234 8.152 121.734 8.524 121.206 8.772C120.678 9.02 120.042 9.144 119.298 9.144ZM131.187 7.872C130.355 8.72 129.303 9.144 128.031 9.144C126.759 9.144 125.711 8.724 124.887 7.884C124.063 7.044 123.651 6.016 123.651 4.8C123.651 3.6 124.067 2.576 124.899 1.728C125.731 0.88 126.783 0.456 128.055 0.456C129.327 0.456 130.375 0.876 131.199 1.716C132.023 2.556 132.435 3.584 132.435 4.8C132.435 6 132.019 7.024 131.187 7.872ZM126.003 6.924C126.547 7.5 127.231 7.788 128.055 7.788C128.879 7.788 129.555 7.5 130.083 6.924C130.619 6.348 130.887 5.64 130.887 4.8C130.887 3.968 130.615 3.264 130.071 2.688C129.535 2.104 128.855 1.812 128.031 1.812C127.207 1.812 126.527 2.1 125.991 2.676C125.463 3.252 125.199 3.96 125.199 4.8C125.199 5.632 125.467 6.34 126.003 6.924ZM134.219 9V0.599999H135.587L140.087 6.408V0.599999H141.539V9H140.303L135.671 3.024V9H134.219ZM143.699 9V0.599999H145.067L149.567 6.408V0.599999H151.019V9H149.783L145.151 3.024V9H143.699ZM153.18 9V0.599999H159.408V1.92H154.656V4.104H158.868V5.424H154.656V7.68H159.468V9H153.18ZM165.119 9.144C163.903 9.144 162.887 8.728 162.071 7.896C161.255 7.056 160.847 6.024 160.847 4.8C160.847 3.584 161.255 2.556 162.071 1.716C162.887 0.876 163.923 0.456 165.179 0.456C165.907 0.456 166.523 0.568 167.027 0.792C167.539 1.016 168.019 1.34 168.467 1.764L167.519 2.856C166.767 2.16 165.983 1.812 165.167 1.812C164.367 1.812 163.703 2.1 163.175 2.676C162.655 3.252 162.395 3.96 162.395 4.8C162.395 5.632 162.659 6.34 163.187 6.924C163.715 7.5 164.375 7.788 165.167 7.788C165.647 7.788 166.071 7.7 166.439 7.524C166.807 7.34 167.187 7.064 167.579 6.696L168.527 7.656C168.055 8.152 167.555 8.524 167.027 8.772C166.499 9.02 165.863 9.144 165.119 9.144ZM172.142 9V1.968H169.478V0.599999H176.294V1.968H173.63V9H172.142ZM177.943 9V0.599999H179.419V9H177.943ZM188.832 7.872C188 8.72 186.948 9.144 185.676 9.144C184.404 9.144 183.356 8.724 182.532 7.884C181.708 7.044 181.296 6.016 181.296 4.8C181.296 3.6 181.712 2.576 182.544 1.728C183.376 0.88 184.428 0.456 185.7 0.456C186.972 0.456 188.02 0.876 188.844 1.716C189.668 2.556 190.08 3.584 190.08 4.8C190.08 6 189.664 7.024 188.832 7.872ZM183.648 6.924C184.192 7.5 184.876 7.788 185.7 7.788C186.524 7.788 187.2 7.5 187.728 6.924C188.264 6.348 188.532 5.64 188.532 4.8C188.532 3.968 188.26 3.264 187.716 2.688C187.18 2.104 186.5 1.812 185.676 1.812C184.852 1.812 184.172 2.1 183.636 2.676C183.108 3.252 182.844 3.96 182.844 4.8C182.844 5.632 183.112 6.34 183.648 6.924ZM191.863 9V0.599999H193.231L197.731 6.408V0.599999H199.183V9H197.947L193.315 3.024V9H191.863ZM204.284 9.12C202.948 9.12 201.78 8.672 200.78 7.776L201.668 6.72C202.508 7.448 203.392 7.812 204.32 7.812C204.776 7.812 205.136 7.716 205.4 7.524C205.672 7.324 205.808 7.06 205.808 6.732C205.808 6.42 205.68 6.172 205.424 5.988C205.168 5.796 204.664 5.612 203.912 5.436C202.936 5.204 202.224 4.912 201.776 4.56C201.336 4.2 201.116 3.652 201.116 2.916C201.116 2.196 201.384 1.612 201.92 1.164C202.456 0.707999 203.144 0.48 203.984 0.48C205.136 0.48 206.152 0.832 207.032 1.536L206.24 2.652C205.464 2.076 204.704 1.788 203.96 1.788C203.536 1.788 203.2 1.884 202.952 2.076C202.712 2.268 202.592 2.512 202.592 2.808C202.592 3.136 202.724 3.392 202.988 3.576C203.26 3.752 203.792 3.936 204.584 4.128C205.512 4.352 206.192 4.652 206.624 5.028C207.064 5.404 207.284 5.932 207.284 6.612C207.284 7.388 207.008 8 206.456 8.448C205.904 8.896 205.18 9.12 204.284 9.12Z" fill="#0275B1"/>
</svg>
